<svg version="1.1" id="Layer_1" xmlns:x="ns_extend;" xmlns:i="ns_ai;" xmlns:graph="ns_graphs;" xmlns="http://www.w3.org/2000/svg" xmlns:xlink="http://www.w3.org/1999/xlink" x="0px" y="0px" viewBox="0 0 38.4 51.8" style="enable-background:new 0 0 38.4 51.8;" xml:space="preserve">
 <style type="text/css">
  .st0{fill-rule:evenodd;clip-rule:evenodd;fill:#171717;}
 </style>
 <metadata>
  <sfw xmlns="ns_sfw;">
   <slices>
   </slices>
   <sliceSourceBounds bottomLeftOrigin="true" height="51.8" width="38.4" x="-295" y="-224.3">
   </sliceSourceBounds>
  </sfw>
 </metadata>
 <g id="Page-1">
  <g id="Navigation" transform="translate(-121.000000, -357.000000)">
   <g id="surfline-header-desktop" transform="translate(51.000000, 336.000000)">
    <g id="surfline-logo" transform="translate(70.000000, 21.000000)">
     <path id="Fill-1" class="st0" d="M19,44.9c-1.1,0-2.1-0.2-3.1-0.4c5.4-1.3,9.4-6.3,9.5-12.2c0-1.8,1.4-3.2,3.2-3.1
					c1.7,0,3.1,1.5,3.1,3.2C31.5,39.4,25.9,45,19,44.9L19,44.9z M9.8,35.3c-1.7,0-3.1-1.5-3.1-3.2c0.1-7,5.7-12.6,12.6-12.5
					c1.1,0,2.1,0.2,3.1,0.4c-5.4,1.3-9.4,6.2-9.5,12.2C12.9,33.9,11.5,35.3,9.8,35.3L9.8,35.3z M36.6,24C34.4,18.4,19.2,0,19.2,0
					S3.9,18.4,1.8,24C0.6,26.5,0,29.3,0,32.2C0,43,8.6,51.8,19.2,51.8c10.6,0,19.2-8.8,19.2-19.6C38.4,29.3,37.7,26.5,36.6,24
					L36.6,24z">
     </path>
    </g>
   </g>
  </g>
 </g>
</svg>